HIERARCHY
ROOT Hips
{
	OFFSET 0.00000 0.00000 0.00000
	CHANNELS 6 Xposition Yposition Zposition Zrotation Yrotation Xrotation 
	JOINT LHipJoint
	{
		OFFSET 0 0 0
		CHANNELS 3 Zrotation Yrotation Xrotation
		JOINT LeftUpLeg
		{
			OFFSET 1.85742 -1.74412 1.01653
			CHANNELS 3 Zrotation Yrotation Xrotation
			JOINT LeftLeg
			{
				OFFSET 2.54803 -7.00067 0.00000
				CHANNELS 3 Zrotation Yrotation Xrotation
				JOINT LeftFoot
				{
					OFFSET 2.51202 -6.90173 0.00000
					CHANNELS 3 Zrotation Yrotation Xrotation
					JOINT LeftToeBase
					{
						OFFSET 0.17547 -0.48209 1.64281
						CHANNELS 3 Zrotation Yrotation Xrotation
						End Site
						{
							OFFSET 0.00000 -0.00000 0.86587
						}
					}
				}
			}
		}
	}
	JOINT RHipJoint
	{
		OFFSET 0 0 0
		CHANNELS 3 Zrotation Yrotation Xrotation
		JOINT RightUpLeg
		{
			OFFSET -1.95533 -1.74413 1.01654
			CHANNELS 3 Zrotation Yrotation Xrotation
			JOINT RightLeg
			{
				OFFSET -2.49465 -6.85400 0.00000
				CHANNELS 3 Zrotation Yrotation Xrotation
				JOINT RightFoot
				{
					OFFSET -2.54783 -7.00010 0.00000
					CHANNELS 3 Zrotation Yrotation Xrotation
					JOINT RightToeBase
					{
						OFFSET -0.18513 -0.50864 1.69288
						CHANNELS 3 Zrotation Yrotation Xrotation
						End Site
						{
							OFFSET -0.00000 -0.00000 0.89242
						}
					}
				}
			}
		}
	}
	JOINT LowerBack
	{
		OFFSET 0 0 0
		CHANNELS 3 Zrotation Yrotation Xrotation
		JOINT Spine
		{
			OFFSET 0.02173 2.16290 -0.15998
			CHANNELS 3 Zrotation Yrotation Xrotation
			JOINT Spine1
			{
				OFFSET 0.00940 2.17323 -0.00467
				CHANNELS 3 Zrotation Yrotation Xrotation
				JOINT Neck
				{
					OFFSET 0 0 0
					CHANNELS 3 Zrotation Yrotation Xrotation
					JOINT Neck1
					{
						OFFSET 0.01475 1.85823 0.31113
						CHANNELS 3 Zrotation Yrotation Xrotation
						JOINT Head
						{
							OFFSET 0.01902 1.88783 -0.37187
							CHANNELS 3 Zrotation Yrotation Xrotation
							End Site
							{
								OFFSET 0.00489 1.93211 -0.16169
							}
						}
					}
				}
				JOINT LeftShoulder
				{
					OFFSET 0 0 0
					CHANNELS 3 Zrotation Yrotation Xrotation
					JOINT LeftArm
					{
						OFFSET 3.34199 1.32384 -0.07862
						CHANNELS 3 Zrotation Yrotation Xrotation
						JOINT LeftForeArm
						{
							OFFSET 5.27950 -0.00000 0.00000
							CHANNELS 3 Zrotation Yrotation Xrotation
							JOINT LeftHand
							{
								OFFSET 3.53504 -0.00000 0.00000
								CHANNELS 3 Zrotation Yrotation Xrotation
								JOINT LeftFingerBase
								{
									OFFSET 0 0 0
									CHANNELS 3 Zrotation Yrotation Xrotation
									JOINT LeftHandIndex1
									{
										OFFSET 0.66795 -0.00000 0.00000
										CHANNELS 3 Zrotation Yrotation Xrotation
										End Site
										{
											OFFSET 0.53852 -0.00000 0.00000
										}
									}
								}
								JOINT LThumb
								{
									OFFSET 0 0 0
									CHANNELS 3 Zrotation Yrotation Xrotation
									End Site
									{
										OFFSET 0.54674 -0.00000 0.54674
									}
								}
							}
						}
					}
				}
				JOINT RightShoulder
				{
					OFFSET 0 0 0
					CHANNELS 3 Zrotation Yrotation Xrotation
					JOINT RightArm
					{
						OFFSET -3.16149 1.45719 -0.50507
						CHANNELS 3 Zrotation Yrotation Xrotation
						JOINT RightForeArm
						{
							OFFSET -5.25035 -0.00000 0.00000
							CHANNELS 3 Zrotation Yrotation Xrotation
							JOINT RightHand
							{
								OFFSET -3.58884 -0.00000 0.00000
								CHANNELS 3 Zrotation Yrotation Xrotation
								JOINT RightFingerBase
								{
									OFFSET 0 0 0
									CHANNELS 3 Zrotation Yrotation Xrotation
									JOINT RightHandIndex1
									{
										OFFSET -0.77924 -0.00000 0.00000
										CHANNELS 3 Zrotation Yrotation Xrotation
										End Site
										{
											OFFSET -0.62824 -0.00000 0.00000
										}
									}
								}
								JOINT RThumb
								{
									OFFSET 0 0 0
									CHANNELS 3 Zrotation Yrotation Xrotation
									End Site
									{
										OFFSET -0.63783 -0.00000 0.63783
									}
								}
							}
						}
					}
				}
			}
		}
	}
}
MOTION
Frames: 8
Frame Time: 0.0175439
0.00 0.00 0.00 0 0 0 0 0 0 -21 0 0 0 0 0 0 0 0 0 0 0 0 0 0 21 0 0 0 0 0 0 0 0 0 0 0 0 0 0 0 0 0 0 0 0 0 0 -16 0 0 21 0 0 11 0 0 0 -8 0 0 0 0 0 0 0 0 0 0 0 0 0 0 0 0 0 0 0 0 8 0 0 0 0 0 0 0 0 0 0 0 0 0 0 0 0 0
0.00 0.00 0.00 37.0926 85.8462 41.5948 0.0000 0.0000 0.0000 -15.1482 -10.8319 -13.1393 1.7988 8.4337 24.0393 0.4542 -1.5568 -12.2862 0.6757 -5.2561 -14.6403 0.0000 0.0000 0.0000 26.9494 18.0477 1.1572 -0.8392 -5.8436 16.3313 2.4440 -32.5684 -33.5280 -1.3633 -7.3902 20.8767 4.7814 -0.2472 3.8952 4.3358 -0.0076 1.7209 1.7804 0.0537 -0.4170 -8.5069 -10.5232 -13.7813 2.7326 -12.7487 43.8854 0.4464 -5.2772 20.4873 0.0000 0.0000 0.0000 -90.1994 3.9475 28.9988 21.6804 -32.6140 -6.4127 -0.0000 0.0000 -30.7168 30.1931 52.8662 24.8851 -7.1250 0.0000 -0.0000 -63.1806 83.2073 -56.9245 0.0000 0.0000 0.0000 70.7675 4.9056 0.4994 -22.4473 33.4789 -6.8310 0.0000 0.0000 2.3379 -39.7421 18.4958 -14.7762 7.1250 -0.0000 -0.0000 -7.3736 -6.6311 -6.5284
0.00 0.00 0.00 28.1029 83.8187 29.3808 0.0000 0.0000 0.0000 -18.8336 -2.5958 -20.7785 2.1725 9.2165 26.4749 0.2599 0.9387 -10.0185 0.5816 -4.8831 -13.5755 0.0000 0.0000 0.0000 24.5451 1.2937 0.4971 -0.7875 -5.6649 15.8151 0.7336 -20.1444 -21.9121 -0.0447 -1.3642 3.7515 6.9801 -0.8049 8.5543 6.3200 -0.0710 3.0766 2.6578 0.0846 -1.6088 -8.3617 -9.9697 -14.7761 0.2166 -10.7827 43.3727 -0.4274 -4.8586 19.9412 0.0000 0.0000 0.0000 -89.8231 4.6830 32.5382 22.1538 -33.1504 -6.6698 -0.0000 0.0000 -32.6741 29.2528 53.9036 24.3500 -7.1250 0.0000 -0.0000 -71.1260 82.9196 -64.2473 0.0000 0.0000 0.0000 64.9474 10.9466 -17.9219 -20.4068 31.1293 -5.7402 0.0000 0.0000 8.2533 -29.7669 18.0440 -10.0461 7.1250 -0.0000 -0.0000 -1.1094 -9.4123 -0.9132
0.00 0.00 0.00 9.9576 76.5090 12.2640 0.0000 0.0000 0.0000 -16.6867 -13.6076 -18.3433 0.3553 3.8297 10.5979 -0.0482 4.0216 -0.3800 0.7201 -5.4225 -15.1175 0.0000 0.0000 0.0000 22.4151 1.0234 1.3966 -0.6629 -5.2072 14.5004 0.0026 -14.2148 -20.1646 -0.0097 0.6355 -1.7465 10.3668 -0.0438 11.2760 7.3797 1.6069 4.7202 1.7336 1.0185 -1.2983 -9.4421 -10.0026 -16.7601 -1.7730 -9.7035 40.3002 -1.0107 -5.0435 18.4294 -0.0000 0.0000 0.0000 -90.1986 3.4427 34.3594 25.3473 -36.5569 -8.4959 -0.0000 0.0000 -35.4370 27.8321 54.0477 23.1411 -7.1250 0.0000 -0.0000 -71.2080 82.3342 -63.7368 -0.0000 0.0000 0.0000 52.8328 13.4025 -12.4388 -27.2781 38.4432 -9.6716 0.0000 0.0000 30.5608 -16.8182 15.0820 -4.4971 7.1250 -0.0000 -0.0000 7.2707 -14.3456 5.2860
0.00 0.00 0.00 -0.7778 55.8261 12.0081 0.0000 0.0000 0.0000 -19.4490 -7.6990 -23.9980 0.9662 6.2584 17.5360 0.0684 1.3098 -5.6072 1.2454 -7.0759 -19.9405 0.0000 0.0000 0.0000 14.5071 6.0120 4.1552 -0.1077 -2.1165 5.8277 0.2093 -8.4480 -5.7214 -1.6559 8.1093 -23.0465 3.0397 2.5054 9.0044 3.2803 3.7331 3.4346 1.3055 1.8946 -1.5059 -9.2097 -8.5473 -17.5776 -2.4787 -7.4003 40.2503 -0.9673 -4.3487 18.4491 -0.0000 0.0000 0.0000 -83.7753 -0.3663 37.4572 36.9368 -46.1466 -16.1944 -0.0000 0.0000 -36.3797 32.1370 55.1845 27.2824 -7.1250 0.0000 -0.0000 -86.5660 83.9344 -80.4579 -0.0000 0.0000 0.0000 52.6742 9.3288 5.6620 -42.0323 49.2289 -19.9650 0.0000 0.0000 4.7950 -30.7120 17.8096 -10.2977 7.1250 -0.0000 -0.0000 -1.7511 -9.4989 -1.4388
0.00 0.00 0.00 -3.1382 54.7974 10.6836 0.0000 0.0000 0.0000 -18.7131 -7.3100 -23.2537 1.0590 6.5429 18.3680 0.1371 1.5896 -7.7674 1.0953 -6.6507 -18.6844 0.0000 0.0000 0.0000 14.9203 4.4814 5.4032 -0.0370 -1.2423 3.4158 0.1659 -7.2437 -1.8097 -1.4796 7.6856 -21.7633 0.8509 2.2001 7.1322 1.9808 3.0583 2.4901 1.3065 1.5380 -1.4893 -8.7235 -8.0091 -17.7098 -1.8957 -6.9367 41.8474 -0.7449 -4.0158 19.4377 -0.0000 -0.0000 0.0000 -83.3972 -0.3640 37.6853 40.9886 -48.6448 -19.1780 -0.0000 0.0000 -35.8711 33.0008 56.4486 28.4234 -7.1250 0.0000 -0.0000 -93.5418 -83.8239 99.7627 -0.0000 -0.0000 0.0000 54.2181 4.9167 12.3338 -70.2876 58.4796 -43.0157 0.0000 -0.0000 -26.6562 -22.5567 6.7457 -2.7933 7.1250 -0.0000 -0.0000 3.0877 -22.6843 1.6604
0.00 0.00 0.00 -5.2513 53.8335 8.5131 0.0000 0.0000 0.0000 -17.8251 -7.0724 -21.3797 1.0762 6.5944 18.5191 0.1877 2.5750 -9.5536 1.0259 -6.4430 -18.0753 0.0000 0.0000 0.0000 15.8296 4.4225 3.7144 -0.2117 -2.9624 8.1740 0.1201 -6.3477 -0.5768 -1.1166 6.7128 -18.8672 -0.9135 1.7656 6.3841 1.0356 2.3305 1.6977 1.3917 1.1727 -1.9066 -8.3636 -7.3791 -17.5452 -0.7849 -6.5995 42.9263 -0.2173 -3.6880 20.1110 -0.0000 0.0000 0.0000 -82.9168 -0.6667 38.9996 42.6733 -49.5763 -20.4517 -0.0000 0.0000 -35.5258 33.0619 56.0624 28.3714 -7.1250 0.0000 -0.0000 -90.6425 -83.9801 96.6990 -0.0000 0.0000 0.0000 55.0494 2.9021 17.8306 -94.4367 59.9255 -63.8414 0.0000 -0.0000 -40.3964 -22.3934 6.1156 -2.5135 7.1250 -0.0000 -0.0000 3.2022 -23.3719 1.6717
0.00 0.00 0.00 -7.9083 52.3079 5.0498 0.0000 0.0000 0.0000 -16.6053 -6.8976 -17.4156 0.9633 6.2491 17.5090 0.1989 4.9857 -11.7321 0.8917 -6.0190 -16.8395 0.0000 0.0000 0.0000 17.0927 3.4184 -2.8655 -1.4081 -7.5057 21.2224 0.0035 -3.2323 2.0747 -0.4774 4.4309 -12.2923 -2.9385 1.3877 5.5764 -0.3221 1.6795 1.1593 1.1946 0.8573 -2.0059 -6.4498 -6.2538 -18.0938 -0.2829 -5.8344 43.5789 -0.1622 -3.0358 20.5518 0.0000 0.0000 0.0000 -82.0750 -2.2704 42.9505 46.6488 -51.5511 -23.5230 -0.0000 0.0000 -34.7235 30.7188 56.7956 26.4356 -7.1250 0.0000 -0.0000 -89.5475 -82.9720 96.6253 0.0000 0.0000 0.0000 55.6326 4.8403 24.9821 -114.8921 57.5242 -81.3780 0.0000 -0.0000 -41.7309 -24.6350 11.2014 -5.0906 7.1250 -0.0000 -0.0000 1.7414 -17.6928 1.1303
